Coordinates
version=1
nRows=5
nColumns=40
inDegrees=yes

Units are S.I. units (second, meters, Newtons, ...)
Angles are in degrees.

endheader
time	pelvis_tilt	pelvis_list	pelvis_rotation	pelvis_tx	pelvis_ty	pelvis_tz	hip_flexion_r	hip_adduction_r	hip_rotation_r	knee_angle_r	knee_angle_r_beta	ankle_angle_r	subtalar_angle_r	mtp_angle_r	hip_flexion_l	hip_adduction_l	hip_rotation_l	knee_angle_l	knee_angle_l_beta	ankle_angle_l	subtalar_angle_l	mtp_angle_l	lumbar_extension	lumbar_bending	lumbar_rotation	arm_flex_r	arm_add_r	arm_rot_r	elbow_flex_r	pro_sup_r	wrist_flex_r	wrist_dev_r	arm_flex_l	arm_add_l	arm_rot_l	elbow_flex_l	pro_sup_l	wrist_flex_l	wrist_dev_l
     34.03750000	     -2.54144431	     -4.02531576	     -2.60933964	      1.07168227	      0.92894375	      0.43171621	     17.07686655	      0.99959845	     -9.08382614	     19.08906821	     19.08906821	      6.33761246	     -3.36695250	     -4.24509247	      5.66379751	    -10.42286379	    -11.20999305	     31.89969358	     31.89969358	     15.97039084	    -11.61422575	     -3.88793010	     -8.64869208	      5.55151922	     -0.24437495	      4.37572093	    -14.48371519	     -4.01421889	     39.68097225	     45.71011742	      0.00000000	      0.00000000	      8.87282869	    -15.25454839	    -16.01257060	     44.74355832	     46.81047152	      0.00000000	      0.00000000
     34.05114286	     -2.41369263	     -4.15033536	     -2.21254392	      1.07196625	      0.92936726	      0.43443491	     16.37365183	      1.23669234	     -9.53094804	     18.85000693	     18.85000693	      6.51496904	     -3.30905123	     -5.01694480	      7.20075022	    -11.12120922	    -10.05409935	     35.19934393	     35.19934393	     13.18317471	    -13.77617288	     -7.63545380	     -8.73285559	      5.72080993	      0.45947252	      4.55190149	    -15.35659741	     -3.14167678	     43.07126861	     45.53742127	      0.00000000	      0.00000000	      9.49015711	    -14.77131043	    -13.95831979	     41.22997364	     46.57467923	      0.00000000	      0.00000000
     34.06478571	     -2.34463387	     -4.31645351	     -1.80049891	      1.07201289	      0.92960606	      0.43708233	     15.72415810	      1.51903024	    -10.02068933	     18.58004224	     18.58004224	      6.78080954	     -3.14420389	     -5.40556247	      9.10714828	    -11.91284642	     -8.91484574	     39.00319166	     39.00319166	     11.02160349	    -15.17308076	     -9.37011752	     -8.79426576	      5.88443500	      0.58111731	      5.62548713	    -15.77117285	     -3.06241175	     45.03174796	     45.47500937	      0.00000000	      0.00000000	      8.83717176	    -14.34451677	    -12.73073385	     40.12190778	     46.42777880	      0.00000000	      0.00000000
     34.07842857	     -2.10569167	     -4.48828252	     -1.43504980	      1.07178480	      0.93000802	      0.43971765	     14.96188472	      1.82445120	    -10.41628300	     18.40687800	     18.40687800	      7.14036243	     -3.02998002	     -5.52372569	     10.98235275	    -12.71472539	     -7.88199239	     43.01060147	     43.01060147	      9.22746805	    -15.93910540	     -9.58144530	     -9.12736392	      6.01786893	      0.86286027	      7.34491105	    -16.12386046	     -3.21076710	     45.91299080	     45.46063267	      0.00000000	      0.00000000	      8.24527100	    -13.74895221	    -12.47900696	     39.57761035	     46.38824705	      0.00000000	      0.00000000
     34.09207143	     -2.19232214	     -4.64231324	     -0.96942596	      1.07132504	      0.92980377	      0.44203276	     14.61056559	      2.05181305	    -11.01751217	     18.31136601	     18.31136601	      7.40474001	     -2.82752215	     -5.85723001	     13.40575323	    -13.35089959	     -6.50392088	     47.07095806	     47.07095806	      7.05621737	    -16.94145368	     -9.67160770	     -8.97755456	      6.20565479	      0.42461099	      8.71195057	    -16.37910541	     -2.96413442	     48.25379429	     45.37439181	      0.00000000	      0.00000000	      7.32870127	    -13.40478933	    -11.66682329	     37.93214905	     46.27805821	      0.00000000	      0.00000000
